<?xml version="1.0" standalone="no"?>
<!DOCTYPE svg PUBLIC "-//W3C//DTD SVG 20010904//EN"
 "http://www.w3.org/TR/2001/REC-SVG-20010904/DTD/svg10.dtd">
<svg version="1.0" xmlns="http://www.w3.org/2000/svg"
 width="1280.000000pt" height="1280.000000pt" viewBox="0 0 1280.000000 1280.000000"
 preserveAspectRatio="xMidYMid meet">

<g transform="translate(0.000000,1280.000000) scale(0.100000,-0.100000)"
fill="#000000" stroke="none">
<path d="M6097 9549 c-112 -14 -357 -64 -461 -94 -279 -81 -613 -244 -836
-409 -403 -297 -699 -661 -901 -1106 -136 -303 -229 -708 -229 -1007 0 -96 1
-103 20 -103 13 0 20 7 20 19 0 11 5 88 11 173 16 236 67 482 143 693 14 39
32 90 41 115 35 98 168 352 248 472 357 537 882 926 1490 1103 418 122 888
142 1307 54 800 -168 1482 -693 1850 -1423 175 -347 260 -676 285 -1098 7
-106 7 -108 31 -108 l24 0 -5 98 c-17 268 -47 454 -111 673 -99 340 -263 654
-495 944 -86 108 -303 326 -414 415 -285 229 -664 420 -1015 512 -248 64 -361
79 -655 83 -148 2 -305 -1 -348 -6z"/>
<path d="M6287 9109 c-8 -28 37 -79 54 -62 16 16 -1 57 -29 72 -16 9 -21 7
-25 -10z"/>
<path d="M6507 9124 c-19 -19 3 -101 24 -89 5 4 9 19 9 34 0 30 -21 66 -33 55z"/>
<path d="M6579 9060 c-15 -49 -1 -104 38 -151 l26 -31 15 28 c22 42 11 114
-24 158 -16 20 -32 36 -36 36 -4 0 -13 -18 -19 -40z"/>
<path d="M6177 9052 c-30 -31 -43 -79 -28 -102 8 -12 13 -11 32 5 28 26 52 81
44 106 -8 26 -16 24 -48 -9z"/>
<path d="M6428 9053 c-26 -30 -38 -60 -38 -96 0 -40 18 -97 31 -97 5 0 21 18
35 40 28 43 35 111 14 150 -13 25 -22 25 -42 3z"/>
<path d="M6736 9038 c-25 -23 -30 -36 -27 -70 1 -24 13 -22 45 7 17 16 26 34
26 55 0 36 -10 38 -44 8z"/>
<path d="M5895 9020 c-22 -42 -19 -82 11 -126 35 -52 46 -57 61 -31 22 39 16
107 -13 149 -15 21 -30 38 -35 38 -5 0 -15 -13 -24 -30z"/>
<path d="M6085 9027 c9 -27 23 -43 31 -35 10 10 -5 46 -22 52 -12 5 -14 1 -9
-17z"/>
<path d="M6916 9013 c-14 -14 -4 -53 20 -82 14 -17 30 -31 35 -31 12 0 11 57
-1 80 -12 23 -44 42 -54 33z"/>
<path d="M6021 8991 c-15 -28 -14 -66 3 -80 12 -10 17 -8 25 8 15 28 14 66 -3
80 -12 10 -17 8 -25 -8z"/>
<path d="M6266 8984 c-14 -15 -26 -33 -26 -40 0 -22 29 -16 55 11 27 26 33 55
11 55 -7 0 -25 -12 -40 -26z"/>
<path d="M5780 8982 c0 -17 38 -62 53 -62 17 0 6 60 -12 70 -29 15 -41 12 -41
-8z"/>
<path d="M6833 8934 c-24 -37 -24 -111 1 -149 l19 -28 18 24 c27 35 34 87 18
133 -18 50 -33 55 -56 20z"/>
<path d="M7036 8926 c-16 -34 -13 -91 6 -102 19 -12 48 28 48 67 0 75 -27 93
-54 35z"/>
<path d="M5671 8909 c-21 -62 -4 -126 40 -150 25 -13 35 -2 45 48 7 38 -20 98
-53 120 -19 13 -22 12 -32 -18z"/>
<path d="M6718 8904 c-48 -25 -69 -92 -25 -79 34 11 67 46 67 72 0 27 -5 28
-42 7z"/>
<path d="M6078 8894 c-37 -19 -78 -92 -78 -137 0 -44 13 -54 46 -32 49 32 87
124 68 165 -8 17 -11 17 -36 4z"/>
<path d="M6560 8878 c1 -28 35 -72 50 -63 16 10 12 30 -11 59 -25 32 -39 33
-39 4z"/>
<path d="M6296 8883 c-9 -9 17 -64 37 -78 27 -19 57 -19 57 -1 0 33 -76 97
-94 79z"/>
<path d="M5805 8846 c-8 -41 16 -97 53 -126 34 -28 49 -25 57 10 9 41 -11 95
-46 125 -41 34 -57 32 -64 -9z"/>
<path d="M6192 8858 c-28 -31 -43 -74 -36 -103 6 -23 7 -23 29 -9 28 18 55 72
55 108 0 32 -19 34 -48 4z"/>
<path d="M7150 8872 c-20 -6 -40 -32 -40 -53 0 -23 37 -14 51 13 14 25 8 46
-11 40z"/>
<path d="M6960 8840 c-8 -15 -7 -27 5 -50 18 -35 21 -36 35 -10 8 15 7 27 -5
50 -18 35 -21 36 -35 10z"/>
<path d="M6479 8821 c-23 -23 -29 -39 -29 -70 0 -49 12 -51 51 -9 21 24 29 42
29 70 0 46 -12 48 -51 9z"/>
<path d="M5570 8825 c0 -8 9 -24 20 -35 11 -11 27 -20 35 -20 21 0 19 33 -3
53 -23 21 -52 22 -52 2z"/>
<path d="M6715 8795 c-37 -36 -33 -58 8 -50 35 8 77 41 77 62 0 23 -59 15 -85
-12z"/>
<path d="M7198 8783 c-26 -29 -31 -66 -14 -107 17 -40 26 -44 49 -18 26 29 26
89 -1 122 -17 21 -18 21 -34 3z"/>
<path d="M6548 8765 c-6 -32 21 -89 45 -93 13 -3 17 4 17 30 0 34 -10 53 -41
76 -14 11 -17 9 -21 -13z"/>
<path d="M5546 8759 c-25 -36 -15 -102 12 -85 16 10 26 72 14 91 -8 16 -11 15
-26 -6z"/>
<path d="M7072 8764 c-31 -22 -28 -44 6 -44 32 0 72 25 72 46 0 19 -49 18 -78
-2z"/>
<path d="M6912 8748 c-14 -18 -17 -48 -9 -80 9 -35 30 -36 45 -3 9 20 9 33 -3
60 -16 39 -18 40 -33 23z"/>
<path d="M7304 8736 c-8 -31 3 -66 21 -66 18 0 23 28 12 63 -11 33 -25 35 -33
3z"/>
<path d="M5422 8725 c-26 -56 -5 -154 36 -170 20 -7 45 61 39 108 -5 35 -39
87 -57 87 -4 0 -12 -11 -18 -25z"/>
<path d="M6215 8725 c-28 -27 -33 -55 -10 -55 22 0 55 37 55 60 0 27 -16 25
-45 -5z"/>
<path d="M6310 8742 c0 -15 34 -40 63 -47 24 -6 26 -5 20 11 -4 11 -14 24 -22
31 -18 14 -61 17 -61 5z"/>
<path d="M6725 8708 c-25 -13 -45 -38 -45 -56 0 -22 61 -5 88 24 12 14 22 29
22 35 0 12 -40 11 -65 -3z"/>
<path d="M5805 8700 c-9 -14 2 -60 15 -60 5 0 12 10 15 21 8 25 -18 59 -30 39z"/>
<path d="M5623 8693 c-31 -6 -29 -27 2 -41 40 -18 95 -13 95 10 0 8 -64 41
-72 37 -2 -1 -13 -4 -25 -6z"/>
<path d="M7060 8683 c-36 -14 -33 -28 7 -36 28 -5 83 16 83 32 0 15 -58 18
-90 4z"/>
<path d="M6070 8670 c0 -24 42 -70 65 -70 24 0 18 29 -14 61 -35 34 -51 37
-51 9z"/>
<path d="M6256 8655 c-45 -34 -73 -105 -41 -105 23 0 83 61 91 93 5 22 3 27
-12 27 -11 0 -28 -7 -38 -15z"/>
<path d="M6510 8638 c0 -33 42 -88 67 -88 30 0 8 71 -31 102 -30 25 -36 22
-36 -14z"/>
<path d="M6830 8648 c-14 -30 -9 -63 15 -93 15 -20 15 -20 30 -1 22 28 18 61
-9 93 l-24 28 -12 -27z"/>
<path d="M5867 8653 c-4 -3 -7 -19 -7 -35 0 -40 24 -31 28 10 3 30 -6 41 -21
25z"/>
<path d="M6342 8649 c6 -19 54 -52 68 -47 8 2 6 10 -7 25 -22 25 -68 42 -61
22z"/>
<path d="M7396 8644 c-22 -22 -21 -64 2 -64 26 0 42 20 42 52 0 32 -20 37 -44
12z"/>
<path d="M5533 8626 c-23 -29 -32 -86 -13 -86 18 0 41 49 38 82 l-3 33 -22
-29z"/>
<path d="M5290 8606 c0 -27 33 -56 62 -56 26 0 23 45 -4 64 -34 24 -58 20 -58
-8z"/>
<path d="M7286 8611 c-26 -29 -32 -100 -12 -139 9 -18 20 -32 25 -32 13 0 38
33 44 60 8 31 -7 98 -25 117 -12 12 -17 11 -32 -6z"/>
<path d="M7021 8608 c-36 -19 -31 -33 14 -35 37 -3 86 19 74 32 -13 12 -66 14
-88 3z"/>
<path d="M6723 8600 c-21 -9 -43 -38 -43 -59 0 -20 51 -11 75 14 44 43 26 68
-32 45z"/>
<path d="M7172 8594 c-28 -19 -30 -64 -4 -64 25 0 52 31 52 58 0 26 -17 28
-48 6z"/>
<path d="M5662 8591 c-25 -15 37 -54 77 -47 46 7 50 14 22 37 -24 20 -76 25
-99 10z"/>
<path d="M5914 8586 c-8 -21 -1 -61 11 -61 6 0 11 17 13 38 3 37 -13 52 -24
23z"/>
<path d="M6052 8553 c2 -25 11 -42 30 -56 15 -12 31 -18 34 -14 14 14 5 59
-16 83 -35 36 -52 31 -48 -13z"/>
<path d="M6316 8574 c-17 -17 -22 -74 -7 -74 6 0 17 10 25 22 29 41 14 84 -18
52z"/>
<path d="M6390 8570 c-11 -7 -8 -11 13 -19 35 -13 37 -13 37 -1 0 15 -35 29
-50 20z"/>
<path d="M5559 8527 c-12 -27 -5 -77 11 -77 15 0 31 39 28 67 -4 35 -25 40
-39 10z"/>
<path d="M6783 8534 c-9 -23 10 -69 27 -69 19 0 25 38 10 64 -13 25 -28 27
-37 5z"/>
<path d="M7444 8540 c-49 -19 -77 -110 -35 -110 41 0 72 20 87 56 24 57 5 77
-52 54z"/>
<path d="M5304 8503 c-40 -59 -12 -196 30 -153 8 8 21 36 27 62 11 41 11 52
-4 83 -20 42 -29 43 -53 8z"/>
<path d="M6965 8518 c-11 -6 -22 -13 -25 -15 -9 -8 26 -23 56 -23 32 0 74 23
58 32 -22 13 -71 17 -89 6z"/>
<path d="M5184 8485 c-13 -70 38 -114 59 -51 7 22 5 33 -10 54 -29 38 -41 38
-49 -3z"/>
<path d="M6244 8510 c-41 -16 -74 -90 -40 -90 15 0 66 45 66 59 0 5 3 16 6 25
7 18 0 19 -32 6z"/>
<path d="M5762 8498 c3 -7 24 -14 49 -16 41 -2 43 -1 25 13 -24 19 -79 20 -74
3z"/>
<path d="M6355 8485 c-28 -27 -33 -55 -10 -55 22 0 55 37 55 60 0 27 -16 25
-45 -5z"/>
<path d="M7552 8494 c-12 -8 -22 -26 -22 -39 0 -19 4 -22 23 -18 27 7 47 30
47 55 0 22 -18 23 -48 2z"/>
<path d="M7100 8485 c-29 -15 -57 -61 -46 -72 4 -4 26 -7 49 -7 34 1 47 8 74
38 18 19 33 40 33 46 0 15 -81 11 -110 -5z"/>
<path d="M6680 8473 c-47 -32 -52 -53 -12 -53 26 0 69 22 84 44 19 29 -34 35
-72 9z"/>
<path d="M5622 8455 c-17 -36 -15 -70 4 -86 14 -11 18 -10 30 6 23 31 16 105
-10 105 -7 0 -18 -11 -24 -25z"/>
<path d="M6005 8453 c5 -35 -2 -41 -25 -20 -8 6 -3 -1 12 -18 17 -19 34 -58
47 -110 11 -44 34 -119 50 -167 16 -49 28 -88 26 -88 -2 0 -46 18 -97 40 -102
44 -293 148 -347 189 -19 14 -31 20 -27 12 14 -23 225 -155 351 -220 66 -34
123 -67 126 -74 14 -26 91 -238 88 -241 -2 -2 -23 -7 -46 -11 -41 -6 -43 -5
-43 17 0 13 -7 34 -16 46 -24 35 -48 11 -41 -44 4 -41 4 -42 -29 -49 -22 -4
-45 0 -66 10 -24 11 -28 12 -15 2 9 -8 17 -17 17 -21 0 -3 -31 -6 -70 -6 -65
0 -98 15 -48 22 l23 3 -25 23 c-25 23 -82 30 -108 13 -11 -6 -7 -14 15 -31
l28 -23 -40 6 c-22 4 -54 7 -71 7 -31 0 -54 16 -159 110 l-49 45 42 -52 c24
-29 56 -63 73 -77 35 -30 36 -32 3 -40 -17 -5 -33 0 -51 14 -27 21 -87 27
-111 11 -11 -6 -8 -14 14 -35 l29 -26 -43 0 c-37 0 -42 3 -42 23 0 22 -27 57
-43 57 -11 0 -8 -58 3 -65 39 -24 -53 -33 -203 -18 l-69 6 32 14 c28 11 31 15
19 29 -34 42 -98 54 -174 33 l-39 -11 32 -29 c18 -16 31 -29 29 -29 -2 0 -28
7 -58 16 -44 13 -85 16 -215 12 -196 -6 -213 -13 -338 -129 -72 -68 -88 -88
-101 -132 -23 -77 -20 -236 6 -328 33 -112 36 -246 9 -369 -24 -109 -23 -118
28 -245 20 -50 20 -51 1 -105 -23 -65 -24 -100 -4 -126 13 -17 13 -16 3 13
-10 27 -9 42 9 95 l21 63 1 -45 c1 -25 7 -54 15 -65 7 -11 18 -33 24 -50 8
-22 11 -25 11 -10 1 11 -8 35 -20 54 -18 29 -20 44 -15 95 5 52 3 69 -19 114
-31 67 -31 101 0 227 14 55 25 108 25 119 0 15 3 16 14 6 25 -20 39 -113 27
-171 -15 -70 -14 -104 6 -120 36 -30 53 -90 53 -194 1 -90 3 -103 24 -129 19
-22 23 -37 19 -63 -4 -26 -2 -33 11 -33 11 0 18 -13 22 -41 6 -35 12 -43 40
-55 63 -26 154 -13 154 22 0 8 -22 59 -50 112 -67 131 -99 267 -72 309 11 18
62 -104 71 -171 4 -31 15 -64 24 -74 9 -10 17 -32 17 -49 0 -42 15 -51 85 -54
75 -3 125 8 125 28 0 8 -24 40 -54 71 -29 31 -60 71 -69 87 -23 46 -47 147
-47 199 0 46 0 46 23 31 13 -8 27 -12 31 -8 4 5 17 8 29 8 31 0 60 55 47 89
-16 43 -12 74 11 86 28 16 57 7 169 -48 89 -44 101 -47 186 -50 76 -3 104 0
173 22 96 30 256 37 315 12 l33 -14 7 -101 c3 -56 13 -118 21 -138 22 -52 19
-67 -17 -86 l-33 -17 33 6 c25 4 32 2 32 -11 0 -35 -20 -53 -72 -65 -29 -7
-58 -17 -64 -21 -6 -5 -18 -7 -27 -3 -33 12 -171 -16 -219 -46 -26 -16 -68
-38 -93 -49 -44 -19 -72 -58 -61 -85 2 -6 10 4 18 23 11 28 29 41 113 84 83
42 110 50 157 51 31 0 54 5 51 10 -4 5 8 6 27 3 18 -4 51 -7 74 -7 40 0 81
-17 61 -26 -28 -12 -77 -46 -72 -50 3 -3 17 2 31 11 32 21 66 12 66 -18 0 -40
-14 -47 -110 -58 -52 -6 -108 -17 -124 -25 -17 -8 -22 -11 -11 -8 11 3 40 9
64 12 l44 5 -28 -52 c-16 -28 -32 -51 -37 -51 -4 0 -8 -5 -8 -12 0 -19 41 24
55 58 26 63 85 66 110 7 19 -45 19 -51 -2 -56 -16 -4 -16 -5 -1 -6 11 -1 15
-7 11 -21 -3 -11 -2 -28 2 -37 5 -14 9 -11 18 17 l12 35 97 0 c54 0 98 -3 98
-8 0 -4 -24 -23 -54 -42 -29 -19 -61 -41 -70 -50 -17 -17 -21 -61 -8 -82 5 -8
8 2 8 23 0 27 7 42 24 56 37 30 119 70 130 63 6 -4 10 5 10 19 0 32 32 54 85
58 35 3 40 0 43 -19 2 -12 -4 -35 -12 -52 -20 -38 -20 -72 0 -119 9 -20 20
-50 24 -67 l7 -30 8 29 c6 21 2 40 -14 73 -26 55 -26 77 0 120 12 19 19 43 16
54 -4 13 0 22 11 26 9 3 37 15 61 25 52 23 77 19 115 -21 l28 -29 -23 -13
c-29 -15 -48 -39 -49 -59 0 -10 5 -8 15 6 8 12 27 27 44 33 35 15 67 2 81 -32
l9 -22 0 22 c1 12 -8 29 -20 37 -21 14 -21 15 10 30 39 20 49 57 26 92 -9 14
-15 27 -13 29 8 8 94 -17 109 -31 10 -9 22 -28 29 -44 14 -35 -5 -78 -49 -109
-16 -11 -36 -39 -45 -62 -9 -23 -28 -56 -41 -74 -14 -17 -25 -38 -25 -45 0
-15 35 32 80 108 35 58 63 67 95 32 10 -11 48 -29 85 -40 74 -22 89 -34 100
-83 l8 -32 1 31 c2 47 -30 80 -103 104 -98 32 -109 53 -75 137 12 29 11 37 -4
63 -20 33 -17 43 25 78 15 13 28 32 28 43 0 29 73 27 94 -3 19 -26 20 -61 5
-89 -16 -31 -2 -55 38 -65 l36 -9 -27 -32 c-19 -23 -25 -39 -21 -53 6 -19 28
-30 23 -11 -2 5 8 28 22 50 30 50 56 53 104 10 44 -38 50 -57 36 -110 -14 -51
-3 -182 13 -154 5 10 7 38 3 62 -3 24 0 74 7 110 l12 65 55 -4 c30 -2 71 -12
90 -21 l35 -17 -23 20 c-27 23 -83 40 -130 40 -36 0 -81 20 -101 44 -8 9 -26
16 -40 16 -31 0 -74 50 -69 78 10 54 168 53 168 -2 0 -21 32 -43 86 -59 83
-24 112 -43 116 -74 3 -28 3 -28 16 -6 17 31 -6 51 -102 86 -42 16 -76 32 -76
37 0 5 35 7 83 3 71 -5 86 -10 115 -34 24 -21 43 -29 72 -29 42 0 48 -6 67
-60 l12 -35 -5 48 -5 47 555 0 556 0 31 28 c26 23 33 38 37 80 5 57 24 22
-288 532 -63 102 -130 214 -149 250 l-36 65 -3 291 c-3 255 -2 292 12 303 37
31 6 87 -62 109 -18 6 -66 14 -107 18 -53 5 -75 11 -75 20 0 8 11 14 25 14 33
0 52 38 35 69 -9 17 -19 21 -43 19 -26 -2 -34 -9 -42 -35 -8 -28 -14 -33 -40
-33 -35 0 -75 -24 -75 -46 0 -30 -47 -64 -89 -64 -53 0 -60 -15 -14 -31 74
-24 73 -19 70 -344 l-2 -290 -27 -51 c-22 -41 -167 -282 -357 -592 -25 -42
-27 -43 -66 -35 -22 4 -85 8 -140 8 -109 1 -194 25 -248 68 l-28 22 158 -1
158 -2 -130 8 c-71 4 -168 17 -215 29 -47 11 -106 21 -132 21 -27 0 -48 2 -48
4 0 1 -12 50 -27 107 -23 88 -27 125 -28 239 0 120 3 140 23 185 32 69 66 103
141 137 49 23 84 31 153 35 l89 6 36 -34 c33 -31 35 -32 20 -7 -9 15 -17 29
-17 30 0 2 33 2 72 1 l73 -1 -105 18 c-58 11 -124 19 -147 19 -39 1 -56 12
-35 24 4 2 0 2 -8 0 -8 -3 -54 -13 -102 -23 -95 -21 -158 -48 -200 -88 l-27
-25 -11 28 c-6 16 -10 43 -8 59 3 30 5 31 60 37 33 4 74 17 101 32 48 29 122
57 149 57 10 0 23 -10 29 -22 11 -20 13 -18 36 31 30 63 26 123 -12 167 -13
15 -23 30 -21 32 3 2 47 -6 100 -17 119 -26 157 -26 56 -1 -133 35 -182 52
-174 60 17 16 191 99 284 135 77 29 104 35 140 31 40 -5 42 -4 17 5 -28 11
-27 12 52 44 71 28 191 97 191 109 0 3 -48 -18 -107 -45 -112 -50 -442 -179
-458 -179 -6 0 -18 7 -28 14 -18 14 -19 13 52 181 5 11 17 43 26 70 10 28 35
86 57 130 25 54 31 72 17 55 -12 -14 -35 -52 -51 -85 -17 -33 -32 -62 -34 -64
-10 -10 -17 14 -29 91 -9 57 -13 70 -14 43 0 -22 6 -71 14 -110 14 -65 14 -72
-5 -122 -11 -30 -31 -76 -46 -104 -23 -46 -27 -50 -42 -36 -9 7 -25 17 -35 20
-16 6 -16 8 3 39 20 33 28 108 12 108 -5 0 -14 -11 -20 -25 -16 -34 -57 -53
-82 -38 -10 7 -27 9 -38 6 -12 -3 -31 2 -44 11 -12 9 -32 15 -43 15 -20 -1
-20 -1 0 -6 11 -3 30 -15 43 -26 42 -39 147 -22 170 27 10 19 11 18 11 -12 1
-24 -7 -42 -29 -64 -28 -28 -58 -34 -53 -10 4 16 -37 26 -51 12 -8 -10 -5 -11
14 -5 24 7 24 7 5 -9 -17 -13 -18 -15 -3 -16 14 0 18 -15 24 -80 5 -67 10 -82
29 -94 29 -19 68 -82 60 -96 -3 -5 3 -10 14 -10 19 0 26 -11 22 -34 -1 -5 3
-22 10 -38 14 -35 0 -58 -21 -33 -7 8 -18 15 -24 15 -6 0 -3 -5 7 -11 46 -27
-1 -57 -69 -44 -21 4 -34 2 -30 -3 3 -5 -11 -16 -32 -25 -20 -9 -53 -26 -72
-37 -25 -14 -54 -20 -105 -21 -38 -1 -62 -3 -52 -6 15 -4 13 -10 -17 -43 -48
-53 -75 -109 -92 -192 -15 -72 -47 -144 -84 -188 l-21 -25 5 70 c3 45 2 61 -3
45 -5 -14 -9 -51 -10 -82 -1 -31 -6 -69 -11 -84 -13 -32 -65 -94 -94 -111 -46
-27 -191 -5 -182 27 59 204 77 242 121 253 13 3 9 5 -12 6 -27 1 -35 -5 -48
-29 -24 -46 -95 -280 -95 -312 0 -16 -16 -61 -35 -102 -34 -69 -35 -78 -30
-142 4 -38 13 -88 21 -111 18 -48 11 -67 -19 -59 -12 3 -35 -3 -54 -15 l-33
-21 0 41 c0 23 -5 41 -10 41 -7 0 -7 7 0 20 21 40 24 180 5 245 -12 38 -18 97
-19 167 -1 104 -2 108 -29 135 l-29 28 22 -38 c25 -42 22 -54 -8 -38 -12 6
-62 11 -113 11 -84 0 -91 1 -73 15 18 13 17 14 -11 5 -242 -74 -276 -79 -366
-54 -68 18 -153 57 -164 74 -3 5 -15 15 -27 21 -16 8 -19 8 -13 -1 5 -9 1 -10
-16 -5 -40 12 -64 31 -100 81 -48 67 -95 111 -141 135 -55 28 -59 17 -6 -14
l43 -25 -27 -11 c-31 -12 -69 -52 -81 -84 -7 -22 -7 -22 9 -2 14 19 15 13 12
-75 -3 -86 -7 -104 -46 -190 -56 -125 -55 -186 5 -328 23 -57 24 -65 11 -79
-12 -12 -20 -13 -37 -4 -14 8 -27 9 -39 2 -10 -6 -28 -7 -40 -4 -17 4 -20 10
-15 33 4 21 -2 37 -21 63 -24 31 -26 42 -26 131 0 101 -13 152 -50 191 -18 20
-19 27 -8 101 14 99 7 139 -39 205 -63 93 -114 254 -112 361 0 40 3 35 38 -64
51 -141 89 -208 133 -232 45 -25 78 -16 128 34 59 59 60 87 12 238 -56 174
-56 177 -31 256 19 63 20 87 7 161 -2 16 4 21 42 27 90 13 278 9 318 -8 46
-19 123 -44 137 -43 6 0 -6 7 -25 14 -33 14 -31 14 40 8 41 -3 76 -7 78 -8 1
-1 -3 -16 -9 -33 -9 -27 -20 -34 -87 -56 -42 -14 -98 -28 -125 -32 -39 -5 -53
-13 -82 -47 -32 -37 -75 -130 -75 -161 0 -32 39 -63 85 -69 79 -8 100 -41 146
-216 37 -141 95 -184 250 -182 106 1 181 22 209 59 24 30 23 48 -4 150 -13 46
-15 71 -8 91 13 38 131 189 219 282 78 81 92 115 93 213 l0 49 43 -7 c114 -19
126 -18 270 14 177 38 200 37 135 -8 -26 -17 -53 -32 -62 -32 -24 0 -30 -20
-12 -38 11 -11 35 -17 69 -18 29 0 78 -4 109 -9 40 -5 62 -4 72 4 12 10 17 3
31 -41 9 -29 29 -71 44 -93 16 -24 28 -59 31 -90 4 -40 9 -50 25 -53 11 -1 37
-8 58 -14 47 -14 56 -7 64 61 3 29 12 58 19 65 20 21 54 89 54 110 0 35 -31
130 -50 153 -20 25 -108 63 -145 63 -23 0 -24 2 -13 20 10 15 10 22 0 32 -10
10 -8 15 10 26 19 11 19 12 3 7 -11 -4 -28 -10 -38 -12 -20 -6 -21 -14 13 132
l22 90 131 135 c125 128 117 124 -36 -19 -37 -35 -70 -61 -73 -58 -3 3 14 65
39 139 49 146 64 202 48 178 -8 -12 -14 -11 -38 10 l-28 25 29 -32 28 -31 -83
-231 c-50 -142 -87 -231 -95 -231 -25 0 -47 -60 -41 -110 l6 -47 -51 -12 c-28
-8 -53 -9 -58 -5 -5 5 -24 41 -44 80 l-36 72 45 88 c25 48 45 95 45 103 0 9
-14 -11 -31 -44 -17 -33 -40 -73 -51 -88 l-21 -29 -28 67 c-46 111 -81 225
-77 250 3 13 0 23 -5 22 -6 -1 -18 25 -28 58 -9 33 -22 76 -28 95 l-11 35 5
-32z m441 -626 c33 -23 33 -25 16 -40 -17 -16 -20 -15 -50 16 -35 36 -38 53
-19 106 l12 35 3 -47 c3 -41 8 -50 38 -70z m1484 -47 c0 -5 -4 -10 -10 -10 -5
0 -10 5 -10 10 0 6 5 10 10 10 6 0 10 -4 10 -10z m-1634 -46 c-3 -9 -6 -20 -6
-24 0 -5 -19 -20 -42 -34 -63 -38 -37 -32 39 9 103 55 144 45 108 -25 -20 -38
-71 -55 -122 -41 -21 6 -61 11 -90 11 -57 0 -77 15 -41 29 13 6 50 28 83 50
65 44 80 50 71 25z m583 -29 c21 -19 43 -35 49 -35 5 0 12 -7 15 -15 6 -15
-27 -25 -94 -28 -31 -2 -34 1 -37 31 -4 35 11 42 50 21 14 -8 18 -8 14 0 -4 6
-21 14 -39 19 -18 5 -33 16 -35 25 -6 29 35 20 77 -18z m1194 -55 c35 -17 34
-23 -8 -43 -45 -22 -165 -35 -165 -18 0 9 -15 11 -55 6 -45 -6 -56 -4 -61 9
-4 11 -13 14 -29 10 -13 -3 -26 0 -30 6 -9 15 -4 19 42 36 49 18 265 14 306
-6z m-3 -362 c1 -325 -3 -310 124 -518 294 -481 356 -587 356 -613 0 -16 -10
-38 -25 -52 l-24 -25 -441 0 c-401 0 -444 2 -473 18 -31 16 -16 17 432 20 322
1 468 6 478 13 24 21 14 47 -73 188 l-86 139 -31 -9 c-18 -6 -69 -10 -114 -10
-128 0 -199 25 -342 119 -87 58 -194 99 -236 91 -16 -4 -214 -304 -231 -351
-7 -20 -29 -24 -39 -8 -3 6 2 10 12 10 13 0 14 3 6 8 -13 8 -6 22 230 407 160
260 156 249 157 488 0 188 1 197 19 197 31 0 34 18 6 36 -22 14 -26 23 -23 57
4 49 26 67 60 49 18 -10 48 -11 127 -3 56 5 106 12 109 15 19 19 22 -21 22
-266z m-3740 -414 c0 -33 -7 -80 -15 -105 -9 -24 -22 -74 -29 -109 l-14 -65
-1 55 c0 30 6 80 14 110 8 30 18 88 22 128 7 86 23 77 23 -14z m456 58 c6 -4
24 -27 41 -52 17 -25 40 -54 50 -65 20 -20 20 -20 -4 -43 -15 -14 -22 -29 -19
-38 3 -9 9 -34 12 -56 6 -36 5 -40 -12 -36 -14 2 -20 13 -22 41 -3 30 -7 37
-20 35 -18 -4 -20 -37 -7 -90 6 -23 4 -28 -11 -28 -12 1 -26 16 -39 43 -14 28
-28 44 -45 47 -25 6 -25 7 -24 103 0 87 3 100 24 122 23 25 55 32 76 17z
m1548 -199 c-18 -95 -68 -217 -101 -246 -23 -20 -153 -37 -153 -20 0 5 5 35
11 66 9 45 16 57 31 57 56 0 136 70 159 141 13 37 58 103 66 96 2 -3 -3 -45
-13 -94z m-1640 -75 c3 -13 6 -33 6 -45 0 -16 6 -23 20 -23 17 0 20 -7 20 -44
0 -51 31 -157 60 -204 24 -39 25 -43 5 -36 -8 3 -26 -4 -41 -15 -26 -20 -28
-21 -48 -4 -32 27 -36 35 -36 75 0 20 -14 71 -31 114 l-31 77 27 63 c29 69 39
77 49 42z m36 -23 c0 -19 -4 -35 -9 -35 -5 0 -11 16 -13 35 -3 24 0 35 9 35 8
0 13 -13 13 -35z m120 -16 c0 -5 -7 -9 -15 -9 -8 0 -15 7 -15 15 0 9 6 12 15
9 8 -4 15 -10 15 -15z m1193 -15 c53 -18 52 -15 32 -104 -18 -84 -7 -148 37
-212 22 -32 14 -58 -19 -58 -13 0 -33 -4 -43 -10 -15 -8 -20 -6 -25 10 -3 11
-11 20 -16 20 -5 0 -9 46 -9 104 0 58 -5 117 -11 133 -16 40 -12 133 5 133 1
0 23 -7 49 -16z m-1714 -119 c-1 -16 -2 -15 -8 5 -5 14 -15 40 -24 57 -10 18
-17 36 -17 40 1 17 49 -83 49 -102z m3375 40 c3 -10 -1 -15 -12 -15 -15 0 -15
-2 -2 -10 12 -8 9 -10 -12 -10 -23 0 -28 4 -28 25 0 20 5 25 24 25 13 0 26 -7
30 -15z m-1724 -68 c0 -22 -7 -31 -32 -42 -18 -7 -34 -12 -36 -10 -2 1 9 25
25 53 29 52 43 52 43 -1z m230 -22 c0 -9 -90 -45 -111 -45 -12 0 -19 7 -19 19
0 15 8 21 33 24 54 6 97 7 97 2z m1558 -7 c19 -19 14 -55 -9 -72 -26 -18 -59
-8 -70 21 -16 44 46 84 79 51z m162 -23 c9 -11 9 -15 1 -15 -7 0 -9 -4 -6 -10
3 -5 -1 -10 -9 -10 -19 0 -29 17 -22 35 7 19 20 19 36 0z m-1943 -11 c-3 -3
-12 -4 -19 -1 -8 3 -5 6 6 6 11 1 17 -2 13 -5z m853 -26 c60 -30 63 -32 36
-36 -33 -4 -99 19 -136 48 l-25 20 30 0 c17 0 59 -14 95 -32z m-602 10 c-2 -6
-34 -22 -71 -34 -66 -22 -66 -22 -72 -2 -4 11 -5 21 -3 22 3 3 108 22 136 25
8 0 12 -4 10 -11z m466 -22 c38 -23 75 -36 113 -41 88 -10 98 -14 111 -44 17
-40 76 -68 188 -92 113 -23 114 -24 114 -50 0 -15 -7 -19 -32 -19 -60 1 -119
17 -139 38 -10 12 -36 24 -56 27 -21 3 -56 15 -78 26 -22 11 -61 23 -86 28
-91 16 -227 110 -212 147 7 20 13 18 77 -20z m-716 -5 c2 -13 1 -39 -3 -58 -6
-31 -9 -34 -38 -31 -30 3 -32 6 -35 47 -5 62 2 73 40 69 26 -2 34 -8 36 -27z
m2277 -5 c0 -36 -26 -56 -49 -37 -16 14 -22 52 -9 65 4 4 19 6 33 4 20 -2 25
-8 25 -32z m-1844 4 c22 -13 26 -62 5 -79 -7 -6 -39 -20 -71 -30 -54 -18 -61
-18 -88 -4 l-30 15 44 42 c67 66 98 78 140 56z m1123 -25 c3 -10 -1 -15 -12
-16 -10 0 -12 -3 -4 -6 13 -5 7 -23 -8 -23 -13 0 -32 39 -25 50 9 15 42 12 49
-5z m-1361 -21 c10 -10 -12 -44 -29 -44 -20 0 -30 30 -13 41 17 10 33 11 42 3z
m854 -9 c19 -8 58 -15 85 -15 43 0 54 -4 79 -31 28 -30 37 -63 21 -73 -13 -8
-152 23 -197 44 -41 18 -85 54 -85 70 0 5 12 11 28 13 15 2 28 5 30 6 1 0 19
-6 39 -14z m166 8 c-7 -2 -19 -2 -25 0 -7 3 -2 5 12 5 14 0 19 -2 13 -5z
m-613 -14 c0 -6 18 -28 40 -50 45 -44 44 -53 -8 -102 -27 -26 -32 -27 -72 -18
-56 12 -61 19 -50 66 6 25 5 44 0 49 -14 14 -12 53 3 59 23 10 87 7 87 -4z
m1517 -5 c3 -8 -1 -22 -9 -30 -19 -19 -52 3 -42 29 8 21 43 22 51 1z m-843 -3
c7 -11 -3 -41 -13 -41 -3 1 -19 12 -36 25 l-30 25 37 0 c20 0 39 -4 42 -9z
m-1466 -18 c-2 -10 -9 -18 -16 -17 -6 1 -23 2 -37 3 -34 2 -32 19 3 24 51 8
53 7 50 -10z m1907 -17 c0 -36 -26 -56 -49 -37 -19 16 -21 57 -3 65 30 12 52
1 52 -28z m675 15 c16 -31 12 -49 -14 -66 -45 -30 -91 16 -61 61 19 29 60 32
75 5z m-1020 3 c0 -16 -43 -74 -55 -74 -23 0 -24 15 -3 48 17 27 58 45 58 26z
m-1111 -49 c13 -13 12 -17 -2 -33 -9 -10 -17 -28 -17 -40 0 -18 -5 -20 -44
-19 -36 2 -50 -3 -73 -25 -16 -15 -43 -31 -61 -34 -22 -5 -38 -16 -48 -35 -20
-40 -43 -49 -127 -49 -69 0 -74 2 -85 25 -22 48 -16 58 26 51 95 -18 120 -18
156 -1 l36 17 -21 35 c-12 19 -19 37 -15 40 3 4 50 6 104 5 120 -1 135 5 105
47 -16 21 -19 31 -10 35 18 7 60 -3 76 -19z m181 5 c12 -8 12 -11 -3 -28 -15
-16 -15 -21 -2 -38 8 -10 15 -27 15 -37 0 -11 9 -30 19 -44 23 -28 19 -45 -15
-68 -24 -15 -25 -15 -42 14 -9 17 -38 42 -64 56 -44 24 -47 28 -42 58 9 52 10
53 56 76 48 23 57 25 78 11z m-426 -22 c18 -25 7 -38 -31 -38 -22 0 -40 31
-28 50 11 17 43 11 59 -12z m1954 -1 c4 -21 -25 -34 -40 -19 -8 8 -8 16 2 27
16 19 34 15 38 -8z m-1088 -13 c0 -17 -22 -14 -28 4 -2 7 3 12 12 12 9 0 16
-7 16 -16z m425 -12 c6 -4 16 -17 23 -29 15 -28 -2 -32 -30 -6 -28 25 -22 57
7 35z m265 -72 l35 -19 -121 -1 c-94 0 -124 3 -140 16 -18 14 -17 15 18 12 20
-2 34 0 32 4 -3 4 28 8 68 8 52 -1 83 -6 108 -20z m-1293 -17 c5 -15 -32 -39
-74 -48 -29 -6 -33 -4 -39 19 -3 14 -3 30 1 36 9 15 107 9 112 -7z m603 -24
c0 -18 -35 -5 -38 14 -3 16 -1 17 17 7 12 -6 21 -15 21 -21z m-754 -27 c7 -4
-9 -14 -37 -23 -51 -16 -60 -12 -33 15 16 17 51 21 70 8z"/>
<path d="M7804 7465 c22 -16 66 -20 66 -6 0 12 -26 21 -58 21 -26 -1 -26 -1
-8 -15z"/>
<path d="M7745 6380 c3 -5 8 -10 11 -10 2 0 4 5 4 10 0 6 -5 10 -11 10 -5 0
-7 -4 -4 -10z"/>
<path d="M8355 6220 c3 -5 8 -10 11 -10 2 0 4 5 4 10 0 6 -5 10 -11 10 -5 0
-7 -4 -4 -10z"/>
<path d="M5400 8460 c0 -13 34 -30 59 -30 24 0 27 10 9 28 -14 14 -68 16 -68
2z"/>
<path d="M5930 8466 c0 -2 8 -10 18 -17 15 -13 16 -12 3 4 -13 16 -21 21 -21
13z"/>
<path d="M6440 8450 c26 -20 80 -27 80 -10 0 15 -36 30 -72 30 l-33 0 25 -20z"/>
<path d="M5837 8443 c-14 -13 17 -33 52 -33 l36 1 -24 19 c-23 20 -52 26 -64
13z"/>
<path d="M6920 8433 c-8 -3 -21 -10 -28 -16 -33 -26 78 -39 114 -13 18 14 18
15 -9 25 -30 12 -53 13 -77 4z"/>
<path d="M5712 8407 c-19 -23 -23 -61 -9 -81 26 -36 65 21 47 69 -11 28 -22
31 -38 12z"/>
<path d="M6376 8389 c-27 -21 -36 -59 -13 -59 21 0 57 39 57 60 0 25 -11 25
-44 -1z"/>
<path d="M7232 8388 c-7 -7 -12 -27 -12 -46 0 -26 4 -33 18 -30 11 2 18 14 20
37 4 38 -8 57 -26 39z"/>
<path d="M7515 8388 c-32 -17 -45 -39 -45 -76 0 -27 3 -33 16 -28 9 3 22 6 30
6 26 0 64 47 64 80 0 25 -4 30 -22 30 -13 0 -32 -6 -43 -12z"/>
<path d="M5090 8361 c0 -43 9 -60 41 -76 42 -22 49 -19 49 24 0 31 -6 44 -26
60 -39 31 -64 28 -64 -8z"/>
<path d="M5420 8380 c-23 -14 16 -39 63 -40 42 0 47 12 15 34 -25 18 -56 20
-78 6z"/>
<path d="M6635 8367 c-5 -17 -2 -40 5 -55 11 -26 12 -26 26 -7 19 25 18 38 -5
66 l-19 24 -7 -28z"/>
<path d="M7344 8375 c-29 -12 -64 -49 -64 -67 0 -12 86 -10 113 3 21 9 54 57
45 64 -14 11 -69 11 -94 0z"/>
<path d="M5900 8370 c-12 -7 -10 -11 10 -18 26 -10 60 -5 60 8 0 18 -46 25
-70 10z"/>
<path d="M6213 8369 c-19 -19 -16 -63 5 -89 24 -29 42 -19 42 24 0 43 -29 83
-47 65z"/>
<path d="M7059 8360 l-24 -19 41 -1 c45 0 78 23 48 34 -26 10 -41 7 -65 -14z"/>
<path d="M5796 8348 c-20 -28 -20 -67 0 -93 15 -20 15 -20 35 4 23 28 24 43 4
81 -19 36 -20 36 -39 8z"/>
<path d="M7617 8352 c-25 -27 -21 -42 11 -42 29 0 62 26 62 48 0 19 -55 14
-73 -6z"/>
<path d="M6821 8331 c-38 -24 49 -49 106 -30 34 11 35 13 18 25 -21 16 -102
19 -124 5z"/>
<path d="M7162 8328 c-15 -15 -16 -64 0 -74 11 -7 38 21 38 41 0 6 -6 19 -13
28 -10 14 -15 15 -25 5z"/>
<path d="M7980 8315 c-47 -50 -17 -125 49 -125 54 0 94 56 71 99 -30 57 -81
68 -120 26z m100 -70 c0 -8 -7 -15 -15 -15 -8 0 -15 7 -15 15 0 8 7 15 15 15
8 0 15 -7 15 -15z"/>
<path d="M5230 8287 c0 -7 5 -18 12 -25 7 -7 18 -12 25 -12 19 0 16 37 -3 44
-24 9 -34 7 -34 -7z"/>
<path d="M5376 8278 c-9 -12 -16 -36 -16 -53 l1 -30 24 28 c25 29 32 61 16 72
-5 3 -17 -5 -25 -17z"/>
<path d="M5483 8290 c-27 -11 -30 -30 -5 -31 65 -4 118 15 90 32 -17 11 -57
10 -85 -1z"/>
<path d="M5899 8279 c-13 -26 -4 -82 17 -100 14 -11 18 -10 30 6 20 27 17 68
-6 93 -25 27 -27 27 -41 1z"/>
<path d="M6410 8283 c-21 -8 -50 -34 -62 -57 -9 -17 -7 -18 28 -12 36 7 94 49
94 68 0 9 -37 10 -60 1z"/>
<path d="M7041 8281 c-19 -12 -4 -31 25 -31 29 0 64 16 64 30 0 12 -70 13 -89
1z"/>
<path d="M7570 8273 c-23 -8 -60 -45 -60 -59 0 -30 77 -32 114 -3 32 25 34 55
4 63 -27 7 -37 7 -58 -1z"/>
<path d="M6771 8247 c-37 -19 -30 -32 18 -35 43 -3 101 13 101 28 0 20 -84 26
-119 7z"/>
<path d="M7241 8247 c-14 -18 -4 -27 28 -27 33 0 56 14 47 29 -10 15 -61 14
-75 -2z"/>
<path d="M7392 8240 c-24 -23 -31 -80 -9 -80 30 0 57 31 57 66 0 39 -16 44
-48 14z"/>
<path d="M5020 8240 c-13 -9 -11 -14 13 -35 22 -19 39 -25 78 -25 27 0 49 4
49 9 0 5 -14 21 -31 35 -32 27 -81 34 -109 16z"/>
<path d="M6164 8225 c-12 -31 36 -105 68 -105 19 0 7 67 -14 87 -36 32 -48 36
-54 18z"/>
<path d="M5546 8215 c-18 -14 -18 -15 7 -26 37 -17 108 6 93 30 -10 16 -77 13
-100 -4z"/>
<path d="M7031 8207 c-39 -19 -38 -37 2 -37 40 0 70 26 46 41 -18 11 -19 11
-48 -4z"/>
<path d="M5408 8183 c-27 -28 -38 -76 -19 -87 4 -3 18 5 30 18 17 18 22 33 19
61 l-3 37 -27 -29z"/>
<path d="M6007 8203 c-11 -10 -8 -61 3 -68 13 -8 29 33 22 57 -5 19 -14 23
-25 11z"/>
<path d="M7699 8197 c-23 -17 -49 -72 -49 -103 0 -14 10 -44 22 -65 18 -32 28
-39 62 -44 132 -20 194 122 90 204 -30 24 -99 28 -125 8z m141 -127 c0 -24
-26 -38 -42 -22 -16 16 -2 42 22 42 13 0 20 -7 20 -20z"/>
<path d="M7206 8189 c-15 -9 -16 -13 -5 -20 20 -12 77 -11 85 2 15 25 -45 38
-80 18z"/>
<path d="M5200 8182 c0 -17 40 -44 65 -44 33 0 42 9 29 30 -12 18 -94 30 -94
14z"/>
<path d="M5674 8156 c-49 -22 -51 -36 -6 -36 25 0 49 7 63 20 13 10 19 19 12
20 -6 0 -17 2 -25 5 -7 2 -27 -2 -44 -9z"/>
<path d="M6281 8154 c0 -11 3 -14 6 -6 3 7 2 16 -1 19 -3 4 -6 -2 -5 -13z"/>
<path d="M6650 8150 c-31 -23 -22 -33 29 -33 40 0 91 24 91 43 0 18 -93 11
-120 -10z"/>
<path d="M7567 8152 c-24 -27 -22 -72 2 -72 28 0 51 27 51 61 0 34 -27 40 -53
11z"/>
<path d="M6850 8146 c0 -15 55 -66 71 -66 13 0 11 22 -5 42 -18 25 -66 42 -66
24z"/>
<path d="M7485 8141 c-6 -21 10 -71 24 -71 17 0 23 42 10 66 -15 29 -26 30
-34 5z"/>
<path d="M5080 8138 c0 -28 31 -58 61 -58 33 0 36 9 12 38 -23 27 -73 40 -73
20z"/>
<path d="M6329 8111 c-29 -30 -39 -61 -18 -61 26 0 77 33 88 56 15 34 15 34
-15 34 -15 0 -38 -12 -55 -29z"/>
<path d="M7386 8124 c-42 -21 -55 -43 -56 -91 0 -53 15 -56 65 -12 26 23 35
39 35 63 0 49 -11 58 -44 40z"/>
<path d="M7166 8119 c-15 -9 -16 -13 -5 -20 19 -12 60 -11 79 1 13 9 13 11 0
20 -20 13 -50 12 -74 -1z"/>
<path d="M5453 8097 c-27 -29 -34 -53 -25 -78 8 -21 9 -20 35 11 42 50 33 115
-10 67z"/>
<path d="M4965 8100 c-3 -5 0 -13 9 -16 21 -8 71 -1 71 11 0 14 -72 19 -80 5z"/>
<path d="M5765 8095 c-34 -16 -65 -39 -65 -49 0 -3 24 -6 53 -6 40 0 59 6 82
24 17 13 28 26 25 29 -14 13 -69 14 -95 2z"/>
<path d="M5222 8068 c18 -27 84 -46 101 -29 21 21 -21 51 -71 51 -44 0 -44 0
-30 -22z"/>
<path d="M6735 8070 c-35 -14 -66 -57 -72 -99 -5 -37 -3 -41 16 -41 36 0 82
50 88 96 6 45 -2 56 -32 44z"/>
<path d="M5540 8064 c0 -29 43 -74 80 -85 22 -7 42 -10 45 -7 10 10 -14 57
-38 72 -28 19 -87 32 -87 20z"/>
<path d="M6840 8060 c0 -22 32 -58 61 -70 39 -16 45 -8 23 28 -22 39 -84 69
-84 42z"/>
<path d="M8025 8045 c-29 -28 -31 -42 -9 -73 17 -25 71 -31 92 -10 21 21 15
75 -10 92 -31 22 -45 20 -73 -9z m75 -55 c0 -5 -4 -10 -10 -10 -5 0 -10 5 -10
10 0 6 5 10 10 10 6 0 10 -4 10 -10z"/>
<path d="M7257 8053 c-10 -9 -9 -73 1 -73 24 1 45 40 36 65 -6 16 -26 20 -37
8z"/>
<path d="M7570 8031 c-12 -24 -13 -51 -1 -51 27 0 41 15 41 41 0 34 -24 40
-40 10z"/>
<path d="M4940 8024 c1 -36 47 -74 89 -74 14 0 21 6 21 19 0 31 -32 61 -72 68
-33 5 -38 3 -38 -13z"/>
<path d="M5120 8031 c0 -16 30 -33 55 -33 36 0 44 11 21 28 -22 15 -76 19 -76
5z"/>
<path d="M5863 8019 c-42 -27 -41 -35 1 -43 49 -9 136 30 120 55 -10 17 -88 9
-121 -12z"/>
<path d="M7177 8022 c-18 -20 -23 -77 -7 -87 13 -8 50 31 50 54 0 25 -10 51
-20 51 -4 0 -14 -8 -23 -18z"/>
<path d="M5480 7999 c-14 -25 -9 -61 7 -67 16 -5 35 44 28 69 -8 25 -22 24
-35 -2z"/>
<path d="M5741 7991 c-16 -29 -13 -49 10 -72 17 -17 23 -19 30 -8 15 24 10 65
-10 83 -19 17 -20 17 -30 -3z"/>
<path d="M7086 7987 c-14 -21 -12 -67 3 -67 17 0 31 27 31 57 0 38 -13 42 -34
10z"/>
<path d="M5240 7981 c0 -26 23 -42 68 -48 50 -7 61 9 28 42 -32 32 -96 36 -96
6z"/>
<path d="M6019 7971 c-28 -28 -39 -61 -20 -61 19 0 71 52 71 71 0 27 -17 24
-51 -10z"/>
<path d="M7497 7979 c-18 -10 -25 -69 -8 -69 16 0 41 31 41 50 0 24 -11 31
-33 19z"/>
<path d="M6570 7947 c0 -30 36 -65 51 -50 8 8 6 20 -5 42 -20 37 -46 41 -46 8z"/>
<path d="M6293 7943 c-23 -23 -32 -83 -13 -83 17 0 42 48 38 77 l-3 28 -22
-22z"/>
<path d="M6870 7950 c0 -14 41 -50 57 -50 15 0 10 13 -15 43 -16 18 -42 23
-42 7z"/>
<path d="M7335 7950 c-4 -6 7 -10 25 -10 18 0 29 4 25 10 -3 6 -15 10 -25 10
-10 0 -22 -4 -25 -10z"/>
<path d="M7651 7947 c-6 -8 -8 -17 -4 -20 10 -11 52 -8 75 4 17 9 18 13 7 20
-21 13 -65 11 -78 -4z"/>
<path d="M5106 7934 c-10 -26 -7 -63 8 -93 15 -27 80 -70 91 -59 11 11 8 84
-4 107 -11 20 -66 61 -82 61 -4 0 -10 -7 -13 -16z"/>
<path d="M5580 7936 c0 -15 36 -36 60 -36 33 0 49 18 29 31 -14 9 -89 13 -89
5z"/>
<path d="M5846 7933 c-13 -14 -5 -71 12 -86 24 -22 32 -13 32 34 0 27 -5 41
-19 48 -10 6 -21 7 -25 4z"/>
<path d="M4893 7888 c19 -46 70 -78 124 -78 l43 0 -13 33 c-19 45 -70 77 -124
77 l-43 0 13 -32z"/>
<path d="M7289 7900 c22 -19 71 -28 71 -14 0 15 -37 33 -65 33 l-30 0 24 -19z"/>
<path d="M6703 7886 c-25 -22 -26 -25 -10 -32 19 -7 67 21 75 44 7 21 -36 13
-65 -12z"/>
<path d="M5293 7893 c-30 -6 -29 -21 1 -34 25 -12 96 -4 96 10 0 10 -46 32
-63 30 -7 -1 -22 -4 -34 -6z"/>
<path d="M6526 7875 c-3 -9 0 -15 9 -15 8 0 15 7 15 15 0 8 -4 15 -9 15 -5 0
-11 -7 -15 -15z"/>
<path d="M7597 7884 c-13 -14 6 -24 43 -24 41 0 61 14 34 24 -21 8 -69 8 -77
0z"/>
<path d="M5940 7861 c-5 -11 -10 -26 -10 -34 0 -19 39 -69 50 -62 15 10 18 60
4 87 -17 33 -29 35 -44 9z"/>
<path d="M7190 7872 c0 -13 47 -32 78 -32 l27 1 -24 19 c-23 20 -81 28 -81 12z"/>
<path d="M5644 7844 c3 -9 6 -17 6 -19 0 -11 70 -24 90 -17 l23 9 -23 21 c-30
27 -106 32 -96 6z"/>
<path d="M7110 7835 c14 -16 77 -31 88 -20 12 12 -31 35 -66 35 -29 0 -33 -2
-22 -15z"/>
<path d="M6580 7836 c0 -2 8 -10 18 -17 15 -13 16 -12 3 4 -13 16 -21 21 -21
13z"/>
<path d="M7535 7831 c-8 -14 61 -45 83 -36 14 5 14 8 1 20 -19 20 -75 30 -84
16z"/>
<path d="M5335 7806 c-18 -13 -18 -14 3 -25 26 -14 77 -14 103 0 20 10 20 11
2 24 -23 18 -84 19 -108 1z"/>
<path d="M6543 7800 c15 -5 41 -20 58 -34 17 -14 35 -26 41 -26 5 0 -9 16 -32
35 -26 22 -52 35 -68 34 l-27 -1 28 -8z"/>
<path d="M7493 7765 c28 -25 67 -34 67 -16 0 16 -43 41 -70 41 l-25 -1 28 -24z"/>
<path d="M5240 7760 c0 -22 38 -62 52 -54 14 9 9 40 -10 57 -25 23 -42 21 -42
-3z"/>
<path d="M7650 7757 c-32 -16 -39 -47 -11 -47 23 0 51 25 51 46 0 17 -8 17
-40 1z"/>
<path d="M6688 7743 c6 -2 18 -2 25 0 6 3 1 5 -13 5 -14 0 -19 -2 -12 -5z"/>
<path d="M4778 7664 c-33 -17 -37 -51 -9 -85 18 -22 21 -22 70 -11 29 7 76 12
106 12 34 0 57 5 65 15 10 12 9 16 -6 21 -11 3 -49 19 -85 35 -73 32 -101 35
-141 13z"/>
<path d="M7355 7651 c23 -23 75 -38 75 -23 0 17 -42 42 -69 42 -25 0 -25 0 -6
-19z"/>
<path d="M7470 7650 c0 -13 39 -37 75 -46 l30 -6 -25 25 c-26 26 -80 45 -80
27z"/>
<path d="M5991 7614 c0 -11 3 -14 6 -6 3 7 2 16 -1 19 -3 4 -6 -2 -5 -13z"/>
<path d="M7116 7589 c-28 -22 -36 -69 -12 -69 49 0 96 36 96 74 0 23 -52 20
-84 -5z"/>
<path d="M6241 7505 c0 -49 4 -99 8 -110 8 -19 3 168 -4 190 -2 6 -3 -30 -4
-80z"/>
<path d="M7276 7559 c-29 -23 -36 -69 -11 -69 31 0 73 29 77 54 3 14 3 28 0
31 -11 11 -40 4 -66 -16z"/>
<path d="M7650 7567 c-29 -15 -39 -54 -15 -63 21 -9 55 23 55 53 0 26 -5 28
-40 10z"/>
<path d="M5977 7528 c-22 -50 -21 -112 2 -186 11 -36 15 -65 10 -74 -13 -20
-10 -86 5 -116 19 -36 52 -65 103 -91 23 -11 58 -32 79 -46 45 -30 89 -33 104
-6 5 11 10 52 10 91 0 77 -12 109 -65 175 -40 49 -60 89 -70 135 -21 97 -49
132 -123 148 -38 9 -39 9 -55 -30z"/>
<path d="M6334 7455 c0 -66 1 -92 3 -57 2 34 2 88 0 120 -2 31 -3 3 -3 -63z"/>
<path d="M7422 7560 c-30 -12 -50 -56 -33 -73 20 -20 65 12 69 51 3 34 0 36
-36 22z"/>
<path d="M7517 7542 c-23 -25 -23 -77 -1 -68 9 3 19 6 24 6 17 0 40 32 40 56
0 19 -5 24 -23 24 -13 0 -31 -8 -40 -18z"/>
<path d="M6356 7485 c4 -38 8 -72 10 -74 8 -9 2 105 -7 124 -6 13 -7 -4 -3
-50z"/>
<path d="M5740 7464 c-6 -14 -9 -69 -8 -122 l1 -97 6 110 c3 61 10 116 14 123
5 6 6 12 2 12 -3 0 -10 -12 -15 -26z"/>
<path d="M6197 7445 c9 -61 24 -99 17 -45 -4 25 -10 54 -15 65 -6 13 -6 6 -2
-20z"/>
<path d="M7108 7473 c6 -2 18 -2 25 0 6 3 1 5 -13 5 -14 0 -19 -2 -12 -5z"/>
<path d="M6794 7452 c12 -13 14 -22 7 -22 -7 0 -9 -4 -6 -10 3 -5 13 -10 21
-10 23 0 13 30 -16 48 l-25 16 19 -22z"/>
<path d="M7175 7460 c17 -4 41 -8 55 -8 22 0 22 1 -5 8 -16 4 -41 8 -55 8 -22
0 -22 -1 5 -8z"/>
<path d="M6707 7427 c-3 -8 -1 -29 3 -48 8 -32 8 -32 7 14 0 50 -2 55 -10 34z"/>
<path d="M6966 7408 c-15 -25 -19 -41 -17 -73 1 -18 4 -17 26 8 15 16 25 40
25 58 0 35 -14 38 -34 7z"/>
<path d="M7140 7409 c0 -11 4 -28 10 -38 10 -20 67 -47 77 -38 12 12 -21 68
-48 82 -36 19 -39 19 -39 -6z"/>
<path d="M7610 7422 c0 -14 38 -50 60 -57 36 -11 37 5 2 36 -31 28 -62 38 -62
21z"/>
<path d="M7270 7401 c0 -27 48 -81 71 -81 29 0 24 37 -10 71 -34 33 -61 38
-61 10z"/>
<path d="M6421 7379 c0 -19 6 -44 14 -55 13 -17 13 -16 5 16 -5 19 -11 44 -13
55 -3 11 -5 5 -6 -16z"/>
<path d="M7510 7400 c0 -19 40 -50 65 -50 25 0 25 1 10 24 -19 29 -75 49 -75
26z"/>
<path d="M7400 7382 c0 -20 39 -62 58 -62 20 0 13 30 -13 55 -29 30 -45 32
-45 7z"/>
<path d="M6730 7349 c0 -11 37 -12 43 -1 3 4 -6 8 -19 8 -13 1 -24 -2 -24 -7z"/>
<path d="M6221 7334 c0 -11 3 -14 6 -6 3 7 2 16 -1 19 -3 4 -6 -2 -5 -13z"/>
<path d="M7056 7309 c-15 -9 -16 -13 -5 -20 31 -19 89 -4 89 23 0 12 -62 9
-84 -3z"/>
<path d="M7143 7258 c-32 -15 -38 -38 -10 -38 25 0 67 26 67 41 0 12 -29 11
-57 -3z"/>
<path d="M7260 7263 c-23 -9 -50 -35 -50 -49 0 -19 58 3 70 26 16 31 13 35
-20 23z"/>
<path d="M7336 7249 c-23 -18 -37 -59 -20 -59 17 0 64 44 64 61 0 24 -11 24
-44 -2z"/>
<path d="M7432 7250 c-27 -25 -28 -40 -4 -40 20 0 62 35 62 50 0 17 -35 11
-58 -10z"/>
<path d="M7545 7248 c-41 -23 -46 -48 -9 -48 33 0 61 15 74 40 9 18 8 20 -17
20 -15 0 -37 -6 -48 -12z"/>
<path d="M6322 7120 l0 -65 10 44 c6 29 6 51 0 65 -8 16 -11 7 -10 -44z"/>
<path d="M7470 7151 c0 -14 25 -31 57 -37 39 -8 50 10 21 30 -24 17 -78 22
-78 7z"/>
<path d="M7170 7128 c0 -23 23 -46 53 -54 52 -12 24 44 -30 60 -16 5 -23 3
-23 -6z"/>
<path d="M7370 7132 c0 -11 39 -52 50 -52 4 0 15 -3 24 -6 24 -9 19 14 -9 41
-23 24 -65 34 -65 17z"/>
<path d="M6930 7110 c-21 -21 -27 -60 -9 -60 34 0 64 37 53 65 -8 20 -20 19
-44 -5z"/>
<path d="M7270 7110 c0 -15 42 -50 62 -50 23 0 23 22 0 43 -20 18 -62 23 -62
7z"/>
<path d="M7013 7079 c-17 -17 -16 -54 2 -69 30 -25 54 27 27 61 -14 16 -19 18
-29 8z"/>
<path d="M5750 7041 c-5 -11 -9 -37 -9 -58 1 -38 1 -38 9 9 5 26 11 52 15 57
3 6 4 11 1 11 -3 0 -10 -9 -16 -19z"/>
<path d="M7090 7012 c0 -31 32 -68 49 -57 17 10 13 40 -6 57 -36 30 -43 30
-43 0z"/>
<path d="M5962 7008 c8 -12 25 -29 39 -37 18 -12 15 -6 -11 22 -39 42 -50 48
-28 15z"/>
<path d="M4561 6980 c-12 -17 -38 -38 -57 -47 -36 -17 -42 -39 -24 -74 18 -33
54 -24 85 23 28 41 47 128 28 128 -5 0 -19 -14 -32 -30z"/>
<path d="M5605 6978 c17 -20 38 -47 48 -60 12 -15 11 -9 -5 21 -13 24 -34 51
-48 60 -24 15 -23 14 5 -21z"/>
<path d="M7280 6992 c0 -12 30 -37 67 -56 34 -17 93 -22 93 -8 0 14 -43 50
-73 61 -34 13 -87 14 -87 3z"/>
<path d="M7190 6976 c0 -17 46 -56 66 -56 8 0 14 3 14 6 0 11 -23 49 -34 56
-19 13 -46 9 -46 -6z"/>
<path d="M6346 6965 c-3 -9 -6 -22 -5 -28 0 -7 5 -1 10 12 5 13 8 26 5 28 -2
2 -6 -3 -10 -12z"/>
<path d="M5506 6949 c-3 -8 -6 -27 -9 -44 -2 -16 -8 -38 -12 -47 -6 -15 -2
-18 23 -18 56 0 92 12 92 30 0 22 -25 52 -62 75 -23 14 -29 15 -32 4z"/>
<path d="M5826 6848 c10 -14 21 -24 23 -22 3 3 -6 15 -18 27 l-24 22 19 -27z"/>
<path d="M5640 6340 l-75 -6 70 -1 c39 -1 79 2 90 7 11 5 13 8 5 7 -8 0 -49
-3 -90 -7z"/>
<path d="M4300 6328 c0 -9 5 -20 10 -23 13 -8 13 5 0 25 -8 13 -10 13 -10 -2z"/>
<path d="M5468 6333 c7 -3 16 -2 19 1 4 3 -2 6 -13 5 -11 0 -14 -3 -6 -6z"/>
<path d="M4362 6210 c0 -19 2 -27 5 -17 2 9 2 25 0 35 -3 9 -5 1 -5 -18z"/>
<path d="M4323 6189 c-12 -30 -11 -32 3 -17 9 8 14 23 12 33 -2 12 -7 7 -15
-16z"/>
<path d="M4304 6135 c-10 -8 -14 -15 -8 -15 6 0 17 7 24 15 16 19 9 19 -16 0z"/>
<path d="M5648 6143 c7 -3 16 -2 19 1 4 3 -2 6 -13 5 -11 0 -14 -3 -6 -6z"/>
<path d="M5138 5674 c-90 -21 -169 -67 -226 -128 -72 -79 -95 -144 -96 -271 0
-92 2 -106 31 -166 56 -121 134 -185 362 -299 208 -104 241 -135 241 -225 0
-106 -65 -150 -220 -150 -111 1 -162 12 -314 70 -61 23 -113 41 -116 40 -3 -2
-3 -68 0 -147 l5 -143 95 -32 c220 -73 508 -60 666 32 62 36 139 126 165 193
47 123 32 276 -36 379 -50 76 -128 132 -318 230 -92 47 -187 103 -210 123 -41
37 -42 39 -42 103 0 56 4 69 25 92 55 59 121 73 248 51 49 -9 126 -29 170 -45
45 -17 84 -26 87 -21 3 5 26 57 50 117 41 98 43 109 29 120 -24 18 -189 70
-258 82 -82 15 -269 12 -338 -5z"/>
<path d="M6645 5668 c-3 -7 -32 -92 -66 -188 -132 -378 -223 -639 -383 -1092
-36 -103 -66 -189 -66 -193 0 -3 75 -4 167 -3 l167 3 55 178 54 177 270 -2
270 -3 55 -177 55 -178 164 0 c132 0 163 3 163 14 0 8 -32 103 -71 212 -39
110 -116 327 -170 484 -55 157 -111 314 -124 350 -13 36 -53 146 -88 245 l-63
180 -192 3 c-149 2 -194 0 -197 -10z m258 -423 c20 -66 59 -190 86 -275 28
-85 49 -156 47 -157 -2 -2 -89 -2 -193 -1 l-191 3 49 160 c27 88 67 223 90
300 22 77 43 147 46 155 6 16 9 9 66 -185z"/>
<path d="M3680 5583 l1 -88 89 -40 89 -40 1 -481 0 -481 -90 -41 -90 -41 0
-90 0 -91 335 0 335 0 0 90 0 90 -90 42 -90 41 0 482 0 481 90 41 90 41 0 86
0 86 -335 0 -335 0 0 -87z"/>
<path d="M7850 5662 c0 -5 25 -82 56 -173 31 -90 138 -407 239 -704 101 -297
188 -552 194 -567 l11 -28 167 0 168 0 57 168 c92 271 341 1005 396 1165 l50
147 -157 0 -158 0 -72 -227 c-168 -525 -204 -644 -237 -768 -19 -71 -34 -140
-34 -152 0 -58 -19 -19 -49 100 -27 105 -158 539 -210 692 -5 17 -33 103 -61
193 l-51 162 -154 0 c-85 0 -155 -4 -155 -8z"/>
<path d="M5735 3971 c-76 -19 -115 -69 -115 -148 0 -97 60 -154 162 -154 64 0
108 15 108 37 0 12 -5 15 -22 9 -93 -28 -162 -11 -198 48 -24 39 -25 66 -3
111 28 60 111 81 201 51 17 -6 22 -3 22 9 0 29 -97 52 -155 37z"/>
<path d="M5401 3952 c-6 -10 -37 -78 -70 -150 -52 -116 -57 -132 -40 -132 13
0 27 15 41 45 l22 45 78 0 78 0 22 -45 c14 -29 29 -45 40 -45 10 0 18 2 18 4
0 2 -22 50 -48 107 -27 57 -57 123 -67 147 -14 32 -24 42 -42 42 -12 0 -27 -8
-32 -18z m36 -160 c-33 -2 -61 -1 -64 1 -2 3 10 36 27 73 l32 69 32 -70 32
-70 -59 -3z"/>
<path d="M5991 3833 c-35 -76 -65 -144 -68 -150 -3 -8 3 -13 14 -13 13 0 26
15 41 45 l22 45 79 0 79 0 19 -45 c12 -30 24 -45 36 -45 23 0 22 4 -52 166
-50 108 -63 129 -83 132 -22 3 -30 -10 -87 -135z m119 31 c16 -37 30 -68 30
-70 0 -2 -29 -4 -64 -4 l-65 0 31 70 c17 39 33 70 34 70 2 0 17 -30 34 -66z"/>
<path d="M6270 3820 l0 -150 83 0 c136 0 191 43 192 150 0 106 -56 150 -192
150 l-83 0 0 -150z m175 106 c61 -26 84 -110 45 -173 -22 -37 -76 -56 -143
-51 l-42 3 -3 118 -3 117 56 0 c31 0 71 -6 90 -14z"/>
<path d="M6590 3820 l0 -150 115 0 c96 0 115 3 115 15 0 12 -17 15 -95 15
l-95 0 0 55 0 55 85 0 c69 0 85 3 85 15 0 12 -16 15 -85 15 l-85 0 0 50 0 50
95 0 c78 0 95 3 95 15 0 12 -19 15 -115 15 l-115 0 0 -150z"/>
<path d="M6857 3858 c1 -62 2 -130 3 -150 0 -27 4 -38 15 -38 13 0 15 21 15
127 0 73 4 123 9 118 5 -6 30 -63 56 -128 45 -109 50 -118 73 -115 21 3 31 19
76 133 l51 129 3 -132 c2 -124 4 -132 22 -132 19 0 20 7 20 150 l0 150 -33 0
c-33 0 -34 -1 -77 -107 -71 -177 -59 -175 -120 -24 -51 129 -53 131 -84 131
l-31 0 2 -112z"/>
<path d="M7237 3957 c4 -7 32 -47 61 -89 49 -72 52 -81 52 -138 0 -53 2 -60
20 -60 18 0 20 7 20 58 0 54 4 62 65 150 57 82 62 92 42 92 -16 0 -35 -19 -71
-72 l-49 -71 -24 29 c-13 16 -36 48 -51 71 -19 30 -34 43 -50 43 -16 0 -21 -4
-15 -13z"/>
<path d="M3660 3775 l0 -25 405 0 405 0 0 25 0 25 -405 0 -405 0 0 -25z"/>
<path d="M8320 3775 l0 -25 410 0 410 0 0 25 0 25 -410 0 -410 0 0 -25z"/>
</g>
</svg>
